<?xml version="1.0" encoding="UTF-8"?> <svg xmlns="http://www.w3.org/2000/svg" width="247" height="247" viewBox="0 0 247 247" fill="none"> <path d="M108.099 236.659C108.168 237.014 108.281 237.337 108.438 237.628C108.59 237.923 108.785 238.182 109.022 238.405C109.255 238.628 109.532 238.805 109.852 238.939C110.171 239.076 110.526 239.166 110.915 239.208C111.614 239.284 112.256 239.176 112.841 238.884C113.426 238.591 113.912 238.121 114.299 237.473C114.682 236.829 114.926 236.019 115.032 235.045C115.138 234.062 115.074 233.213 114.839 232.497C114.603 231.782 114.23 231.216 113.718 230.8C113.205 230.389 112.584 230.144 111.856 230.065C111.195 229.993 110.609 230.058 110.099 230.26C109.584 230.461 109.17 230.781 108.857 231.218C108.543 231.66 108.352 232.196 108.283 232.828L107.759 232.687L111.292 233.07L111.092 234.913L105.811 234.341L105.981 232.777C106.101 231.663 106.443 230.725 107.006 229.963C107.569 229.201 108.289 228.645 109.167 228.294C110.045 227.948 111.022 227.833 112.098 227.95C113.297 228.08 114.32 228.463 115.169 229.1C116.012 229.74 116.634 230.585 117.035 231.636C117.43 232.69 117.554 233.904 117.405 235.277C117.291 236.327 117.041 237.25 116.655 238.043C116.264 238.837 115.769 239.493 115.168 240.01C114.567 240.532 113.888 240.905 113.131 241.127C112.374 241.353 111.569 241.42 110.718 241.328C109.997 241.25 109.337 241.071 108.738 240.792C108.137 240.517 107.617 240.16 107.176 239.722C106.73 239.284 106.379 238.783 106.123 238.219C105.867 237.656 105.725 237.049 105.697 236.398L108.099 236.659Z" fill="#9DFC03"></path> <path d="M99.4037 226.047L95.9102 238.663L87.7048 236.391L88.2353 234.475L94.1553 236.115L95.1037 232.689L89.6088 231.168L90.1393 229.252L95.6342 230.774L96.5878 227.33L90.6185 225.677L91.149 223.761L99.4037 226.047Z" fill="#9DFC03"></path> <path d="M80.4779 231.753L79.6619 233.566L70.1378 229.279L70.9538 227.466L74.6434 229.127L79.2008 219.002L81.3458 219.968L76.7883 230.092L80.4779 231.753Z" fill="#9DFC03"></path> <path d="M51.7326 217.653L59.5572 207.158L61.4585 208.576L53.6338 219.071L51.7326 217.653Z" fill="#9DFC03"></path> <path d="M36.979 204.48L46.1385 195.127L47.6455 196.603L45.8135 207.289L45.8911 207.365L52.1301 200.995L53.8244 202.654L44.6649 212.007L43.1487 210.522L44.9898 199.835L44.9076 199.755L38.6641 206.13L36.979 204.48Z" fill="#9DFC03"></path> <path d="M26.0642 187.453L24.3555 188.469L19.0171 179.492L20.7258 178.476L22.7939 181.953L32.337 176.279L33.5393 178.3L23.9961 183.975L26.0642 187.453Z" fill="#9DFC03"></path> <path d="M16.9581 158.242C18.2733 157.733 19.4952 157.542 20.6239 157.672C21.747 157.798 22.721 158.189 23.5456 158.843C24.3688 159.492 24.9875 160.352 25.4018 161.421C25.816 162.489 25.9388 163.543 25.7702 164.582C25.596 165.618 25.1375 166.564 24.3947 167.419C23.6464 168.271 22.6167 168.951 21.3055 169.459C19.9903 169.969 18.7711 170.16 17.648 170.033C16.5193 169.904 15.5434 169.515 14.7202 168.865C13.8955 168.211 13.2761 167.35 12.8618 166.281C12.4475 165.212 12.3255 164.16 12.4957 163.125C12.6644 162.086 13.1228 161.141 13.8711 160.289C14.6139 159.434 15.6429 158.752 16.9581 158.242ZM17.8197 160.465C16.8939 160.824 16.1694 161.272 15.646 161.808C15.1172 162.342 14.7884 162.927 14.6597 163.562C14.5271 164.198 14.5893 164.848 14.8465 165.512C15.1037 166.175 15.4957 166.697 16.0226 167.078C16.5456 167.46 17.1831 167.673 17.9352 167.715C18.6818 167.754 19.5181 167.595 20.4438 167.236C21.3696 166.877 22.097 166.431 22.6258 165.897C23.1491 165.36 23.4771 164.774 23.6098 164.137C23.7385 163.503 23.6742 162.853 23.4171 162.19C23.1599 161.526 22.7698 161.003 22.2469 160.621C21.72 160.24 21.0832 160.03 20.3366 159.99C19.5845 159.948 18.7455 160.107 17.8197 160.465Z" fill="#9DFC03"></path> <path d="M6.74079 143.697L6.28417 141.37L14.6767 139.724C15.5966 139.543 16.4485 139.602 17.2321 139.9C18.015 140.193 18.6796 140.692 19.2262 141.397C19.7685 142.103 20.1422 142.979 20.3473 144.024C20.5533 145.074 20.5385 146.027 20.3031 146.886C20.0635 147.745 19.6367 148.458 19.0229 149.026C18.4091 149.594 17.6422 149.968 16.7222 150.148L8.32973 151.795L7.87311 149.468L16.0712 147.859C16.6064 147.754 17.0602 147.544 17.4324 147.228C17.8038 146.907 18.0664 146.508 18.2202 146.031C18.3699 145.554 18.3869 145.021 18.2712 144.431C18.1555 143.842 17.9383 143.355 17.6196 142.97C17.2959 142.582 16.902 142.312 16.4379 142.159C15.9738 142.007 15.4741 141.984 14.9389 142.089L6.74079 143.697Z" fill="#9DFC03"></path> <path d="M9.35123 119.916L9.3937 122.306C9.00293 122.381 8.65791 122.513 8.35866 122.702C8.05515 122.89 7.79929 123.123 7.59111 123.4C7.38292 123.676 7.22867 123.99 7.12836 124.341C7.02371 124.688 6.97495 125.062 6.98206 125.462C6.99471 126.174 7.18486 126.801 7.55253 127.345C7.91593 127.888 8.44338 128.309 9.13488 128.608C9.82212 128.907 10.6578 129.048 11.6421 129.03C12.6433 129.012 13.4842 128.842 14.1646 128.519C14.8407 128.191 15.3486 127.752 15.6883 127.2C16.0237 126.644 16.1851 126.013 16.1725 125.306C16.1655 124.914 16.1079 124.548 15.9996 124.209C15.8869 123.866 15.7259 123.56 15.5166 123.291C15.3071 123.017 15.0516 122.79 14.75 122.607C14.4484 122.421 14.1052 122.295 13.7204 122.229L13.6907 119.839C14.3144 119.917 14.9016 120.101 15.4522 120.389C16.0028 120.674 16.4911 121.051 16.9171 121.52C17.3389 121.99 17.6726 122.543 17.9183 123.178C18.1598 123.813 18.2874 124.52 18.3013 125.3C18.3217 126.45 18.0737 127.482 17.5571 128.394C17.0406 129.307 16.2842 130.032 15.2879 130.57C14.2916 131.108 13.0905 131.389 11.6844 131.414C10.2741 131.439 9.0637 131.198 8.05313 130.692C7.03829 130.186 6.25656 129.486 5.70792 128.592C5.15928 127.698 4.87482 126.681 4.85453 125.539C4.84158 124.81 4.9318 124.131 5.12519 123.501C5.31857 122.871 5.60903 122.307 5.99657 121.81C6.37985 121.313 6.85415 120.902 7.41948 120.577C7.98048 120.247 8.62439 120.027 9.35123 119.916Z" fill="#9DFC03"></path> <path d="M18.5215 112.422L5.59409 110.359L5.96775 108.018L11.4404 108.891L12.3962 102.901L6.92356 102.027L7.29822 99.6792L20.2256 101.742L19.8509 104.09L14.3593 103.214L13.4035 109.204L18.8951 110.08L18.5215 112.422Z" fill="#9DFC03"></path> <path d="M24.3511 81.0845C24.1485 81.5587 23.848 81.9423 23.4493 82.2354C23.0468 82.5269 22.5994 82.7065 22.1071 82.7742C21.6164 82.838 21.134 82.7687 20.6599 82.5661C20.1818 82.3619 19.7981 82.0613 19.5089 81.6644C19.2175 81.2619 19.0398 80.8153 18.976 80.3247C18.9083 79.8323 18.9757 79.3491 19.1782 78.8749C19.3824 78.3968 19.685 78.014 20.0858 77.7265C20.4844 77.4333 20.929 77.2549 21.4197 77.1911C21.9081 77.1216 22.3913 77.189 22.8694 77.3933C23.3436 77.5958 23.7264 77.8983 24.0179 78.3009C24.311 78.6995 24.4914 79.1449 24.5592 79.6372C24.6246 80.124 24.5553 80.6064 24.3511 81.0845Z" fill="#9DFC03"></path> <path d="M34.2877 51.8699C33.9483 51.7461 33.6133 51.6765 33.2827 51.661C32.9513 51.6395 32.6289 51.6731 32.3157 51.7616C32.0049 51.8468 31.7101 51.9922 31.4311 52.1977C31.1487 52.4006 30.889 52.6583 30.652 52.9706C30.2269 53.5307 29.9891 54.1366 29.9386 54.7883C29.888 55.44 30.0407 56.0988 30.3966 56.7648C30.7517 57.4248 31.3196 58.051 32.1003 58.6435C32.8879 59.2411 33.6489 59.6234 34.3835 59.7903C35.1181 59.9573 35.7954 59.9283 36.4154 59.7034C37.0321 59.4759 37.5619 59.0702 38.005 58.4864C38.4069 57.9568 38.6528 57.4212 38.7428 56.8797C38.8354 56.3348 38.7748 55.8154 38.5611 55.3215C38.344 54.8251 37.9826 54.385 37.4768 54.0012L37.8676 53.6237L35.7192 56.4548L34.2425 55.3342L37.4535 51.1029L38.7062 52.0534C39.5989 52.7309 40.2269 53.5071 40.5902 54.3819C40.9534 55.2567 41.0591 56.1607 40.9072 57.0939C40.752 58.0246 40.3472 58.921 39.6929 59.7833C38.9639 60.7439 38.1082 61.4239 37.1258 61.8232C36.1426 62.2165 35.0975 62.3142 33.9907 62.1161C32.883 61.9122 31.7793 61.3928 30.6794 60.5582C29.8376 59.9193 29.1758 59.2299 28.6942 58.49C28.2151 57.7467 27.9084 56.9843 27.7739 56.2028C27.636 55.4188 27.6668 54.6451 27.8662 53.8817C28.0623 53.1157 28.4193 52.3916 28.9371 51.7093C29.375 51.1322 29.8682 50.6586 30.4166 50.2884C30.9616 49.9156 31.5354 49.6529 32.1379 49.5004C32.7431 49.3444 33.3531 49.3018 33.9681 49.3726C34.583 49.4434 35.1764 49.6343 35.7483 49.9452L34.2877 51.8699Z" fill="#9DFC03"></path> <path d="M47.8625 49.8827L38.8482 40.3899L45.0223 34.5271L46.3912 35.9686L41.9367 40.1985L44.384 42.7756L48.5186 38.8495L49.8874 40.291L45.7529 44.2172L48.2133 46.8082L52.7048 42.5432L54.0737 43.9847L47.8625 49.8827Z" fill="#9DFC03"></path> <path d="M52.72 30.7216L51.5866 29.0884L60.1671 23.1332L61.3006 24.7664L57.9765 27.0734L64.3071 36.1948L62.3746 37.536L56.0441 28.4146L52.72 30.7216Z" fill="#9DFC03"></path> <path d="M79.6121 13.3457L84.5775 25.4584L82.3832 26.3579L77.4179 14.2452L79.6121 13.3457Z" fill="#9DFC03"></path> <path d="M98.5031 7.4854L101.802 20.1539L99.7604 20.6854L91.5443 13.6105L91.4391 13.6379L93.686 22.2671L91.3911 22.8647L88.0924 10.1962L90.1461 9.66142L98.3577 16.7441L98.469 16.7151L96.2205 8.07974L98.5031 7.4854Z" fill="#9DFC03"></path> <path d="M118.719 6.90026L118.729 4.91235L129.173 4.96073L129.164 6.94863L125.118 6.92989L125.066 18.0328L122.714 18.0219L122.766 6.919L118.719 6.90026Z" fill="#9DFC03"></path> <path d="M148.447 14.1412C148.207 15.5311 147.741 16.6764 147.048 17.5773C146.361 18.4746 145.525 19.1084 144.54 19.4785C143.559 19.8493 142.503 19.9369 141.374 19.7415C140.244 19.546 139.278 19.1084 138.474 18.4288C137.676 17.7457 137.101 16.8657 136.752 15.7888C136.407 14.7085 136.354 13.4755 136.594 12.0898C136.834 10.7 137.298 9.55638 137.985 8.65901C138.678 7.75816 139.514 7.12233 140.495 6.75152C141.48 6.38143 142.538 6.29412 143.667 6.48959C144.797 6.68506 145.761 7.12226 146.561 7.80118C147.364 8.48083 147.938 9.36082 148.283 10.4412C148.633 11.518 148.688 12.7514 148.447 14.1412ZM146.098 13.7347C146.267 12.7563 146.257 11.9047 146.067 11.1798C145.881 10.4514 145.55 9.86861 145.072 9.43128C144.595 8.98976 144.006 8.70832 143.304 8.58697C142.603 8.46561 141.954 8.53269 141.356 8.78819C140.759 9.03949 140.248 9.47663 139.825 10.0996C139.406 10.7191 139.112 11.5181 138.943 12.4964C138.774 13.4748 138.782 14.3281 138.967 15.0565C139.157 15.7814 139.491 16.3646 139.968 16.8061C140.446 17.2434 141.036 17.5227 141.737 17.6441C142.438 17.7655 143.087 17.7005 143.684 17.4492C144.282 17.1937 144.79 16.7562 145.209 16.1367C145.632 15.5137 145.929 14.713 146.098 13.7347Z" fill="#9DFC03"></path> <path d="M166.177 12.8755L168.407 13.6828L165.496 21.7246C165.176 22.6061 164.687 23.306 164.028 23.8243C163.373 24.344 162.603 24.6566 161.718 24.7619C160.833 24.8633 159.89 24.7327 158.889 24.37C157.883 24.0059 157.073 23.5019 156.459 22.858C155.846 22.2101 155.454 21.4769 155.283 20.6583C155.113 19.8397 155.187 18.9897 155.507 18.1082L158.418 10.0664L160.648 10.8737L157.804 18.7291C157.618 19.242 157.565 19.7394 157.644 20.2213C157.728 20.7047 157.934 21.1353 158.264 21.5131C158.596 21.8869 159.044 22.1761 159.609 22.3806C160.174 22.5851 160.703 22.6499 161.197 22.575C161.697 22.4974 162.131 22.2989 162.501 21.9795C162.87 21.66 163.148 21.2439 163.333 20.731L166.177 12.8755Z" fill="#9DFC03"></path> <path d="M185.216 27.3626L183.146 26.1678C183.283 25.7942 183.347 25.4305 183.34 25.0769C183.335 24.7196 183.267 24.3805 183.137 24.0596C183.007 23.7388 182.818 23.4449 182.568 23.178C182.325 22.9095 182.03 22.6752 181.683 22.475C181.066 22.1193 180.431 21.9591 179.776 21.9944C179.123 22.026 178.49 22.2612 177.878 22.7C177.267 23.1351 176.716 23.779 176.224 24.6316C175.724 25.499 175.437 26.3075 175.363 27.0572C175.296 27.8054 175.411 28.4671 175.709 29.0424C176.012 29.6161 176.471 30.0797 177.083 30.4332C177.423 30.6292 177.766 30.768 178.112 30.8498C178.464 30.9301 178.81 30.9498 179.148 30.9089C179.49 30.8702 179.817 30.7685 180.129 30.6038C180.444 30.4413 180.729 30.212 180.983 29.916L183.047 31.1219C182.659 31.6161 182.199 32.0248 181.668 32.3482C181.141 32.6737 180.566 32.898 179.944 33.0212C179.324 33.1407 178.679 33.1422 178.008 33.0258C177.339 32.9056 176.667 32.6507 175.992 32.2609C174.995 31.6859 174.239 30.9419 173.723 30.029C173.206 29.1162 172.974 28.0943 173.027 26.9634C173.079 25.8325 173.456 24.658 174.159 23.44C174.864 22.2183 175.694 21.3047 176.648 20.6993C177.605 20.0902 178.608 19.7807 179.656 19.7708C180.705 19.7609 181.724 20.0414 182.713 20.6122C183.344 20.9763 183.88 21.4036 184.321 21.8938C184.761 22.384 185.094 22.9233 185.321 23.5114C185.549 24.0959 185.657 24.7143 185.645 25.3665C185.639 26.0171 185.496 26.6825 185.216 27.3626Z" fill="#9DFC03"></path> <path d="M186.916 39.0828L195.343 29.0647L197.158 30.5913L193.59 34.8323L198.233 38.7371L201.8 34.4961L203.62 36.0267L195.193 46.0448L193.373 44.5141L196.953 40.2584L192.311 36.3536L188.731 40.6093L186.916 39.0828Z" fill="#9DFC03"></path> <path d="M210.774 60.2212C210.472 59.8034 210.298 59.3481 210.252 58.8555C210.21 58.3604 210.286 57.8844 210.482 57.4275C210.68 56.9741 210.988 56.5963 211.405 56.2942C211.827 55.9896 212.282 55.8156 212.771 55.7721C213.266 55.7297 213.741 55.8074 214.194 56.0055C214.651 56.201 215.03 56.5077 215.332 56.9255C215.637 57.3468 215.809 57.8033 215.849 58.295C215.895 58.7877 215.819 59.2607 215.621 59.7141C215.429 60.1685 215.122 60.548 214.701 60.8526C214.283 61.1547 213.827 61.327 213.332 61.3695C212.839 61.4154 212.364 61.3406 211.907 61.1451C211.456 60.9505 211.079 60.6425 210.774 60.2212Z" fill="#9DFC03"></path> <path d="M230.697 83.7864C230.978 83.5593 231.21 83.308 231.393 83.0326C231.583 82.7596 231.72 82.466 231.805 82.1519C231.892 81.8417 231.92 81.5141 231.887 81.1691C231.859 80.8225 231.772 80.4672 231.626 80.1032C231.365 79.4504 230.968 78.9344 230.435 78.5554C229.903 78.1764 229.26 77.9679 228.505 77.9299C227.757 77.8943 226.928 78.0585 226.018 78.4226C225.1 78.7898 224.38 79.2452 223.858 79.7888C223.337 80.3325 223.013 80.9279 222.886 81.5752C222.764 82.221 222.839 82.8841 223.111 83.5646C223.358 84.1818 223.69 84.6685 224.108 85.0246C224.527 85.3846 225.004 85.6002 225.537 85.6714C226.074 85.741 226.638 85.6579 227.227 85.4221L227.349 85.9515L226.029 82.6518L227.751 81.9633L229.723 86.8951L228.263 87.4791C227.223 87.8954 226.234 88.0339 225.297 87.8946C224.36 87.7554 223.531 87.3803 222.809 86.7694C222.092 86.157 221.532 85.3483 221.13 84.3433C220.682 83.2236 220.54 82.1399 220.703 81.0922C220.873 80.0469 221.327 79.1008 222.067 78.2541C222.813 77.4098 223.826 76.7312 225.108 76.2184C226.089 75.8259 227.021 75.6138 227.904 75.5821C228.787 75.5544 229.599 75.6841 230.338 75.9714C231.081 76.257 231.728 76.6819 232.28 77.2461C232.835 77.8087 233.272 78.4877 233.59 79.2829C233.859 79.9555 234.011 80.6222 234.046 81.283C234.085 81.9421 234.015 82.5693 233.835 83.1643C233.657 83.7634 233.379 84.3082 233.002 84.7988C232.624 85.2894 232.155 85.6997 231.594 86.0297L230.697 83.7864Z" fill="#9DFC03"></path> <path d="M225.408 96.4455L238.188 93.6087L240.033 101.921L238.092 102.351L236.761 96.3545L233.291 97.1247L234.527 102.691L232.586 103.122L231.351 97.5555L227.862 98.3298L229.204 104.376L227.264 104.807L225.408 96.4455Z" fill="#9DFC03"></path> <path d="M239.329 110.479L241.313 110.348L241.998 120.771L240.014 120.901L239.749 116.863L228.67 117.591L228.516 115.244L239.595 114.516L239.329 110.479Z" fill="#9DFC03"></path> <path d="M240.371 142.479L227.431 140.496L227.79 138.152L240.73 140.135L240.371 142.479Z" fill="#9DFC03"></path> <path d="M235.664 161.69L223.106 157.992L223.702 155.968L233.998 152.57L234.029 152.466L225.475 149.947L226.145 147.672L238.702 151.37L238.103 153.406L227.802 156.796L227.77 156.906L236.33 159.427L235.664 161.69Z" fill="#9DFC03"></path> <path d="M225.752 179.319L227.451 180.351L222.03 189.279L220.331 188.247L222.431 184.788L212.941 179.025L214.161 177.015L223.652 182.778L225.752 179.319Z" fill="#9DFC03"></path> <path d="M204.233 201.07C203.165 200.148 202.424 199.159 202.008 198.101C201.593 197.05 201.481 196.007 201.671 194.972C201.858 193.94 202.327 192.99 203.076 192.123C203.825 191.255 204.698 190.652 205.695 190.314C206.692 189.981 207.742 189.942 208.845 190.197C209.949 190.458 211.033 191.048 212.097 191.967C213.164 192.889 213.905 193.876 214.321 194.927C214.736 195.984 214.85 197.029 214.663 198.061C214.473 199.096 214.003 200.047 213.253 200.915C212.504 201.782 211.633 202.383 210.639 202.719C209.642 203.058 208.592 203.097 207.489 202.836C206.385 202.581 205.3 201.993 204.233 201.07ZM205.791 199.266C206.543 199.915 207.278 200.345 207.997 200.555C208.717 200.772 209.388 200.788 210.009 200.603C210.633 200.422 211.177 200.062 211.643 199.523C212.108 198.985 212.385 198.393 212.474 197.749C212.566 197.108 212.454 196.446 212.138 195.762C211.823 195.084 211.29 194.42 210.538 193.771C209.787 193.122 209.051 192.689 208.331 192.473C207.612 192.263 206.94 192.248 206.316 192.43C205.695 192.614 205.152 192.976 204.687 193.514C204.222 194.053 203.943 194.643 203.851 195.284C203.762 195.928 203.875 196.589 204.191 197.267C204.506 197.951 205.04 198.617 205.791 199.266Z" fill="#9DFC03"></path> <path d="M196.185 216.919L194.345 218.415L188.951 211.777C188.36 211.049 188.012 210.27 187.907 209.438C187.799 208.609 187.928 207.788 188.294 206.974C188.663 206.164 189.26 205.423 190.087 204.751C190.917 204.077 191.766 203.642 192.635 203.447C193.506 203.256 194.336 203.298 195.126 203.573C195.915 203.849 196.605 204.35 197.196 205.078L202.59 211.715L200.749 213.211L195.481 206.727C195.137 206.304 194.738 206.002 194.284 205.822C193.827 205.644 193.351 205.599 192.857 205.688C192.366 205.779 191.888 206.015 191.421 206.393C190.955 206.772 190.627 207.193 190.437 207.655C190.246 208.123 190.192 208.597 190.276 209.079C190.359 209.56 190.573 210.012 190.917 210.435L196.185 216.919Z" fill="#9DFC03"></path> <path d="M173.961 225.776L176.051 224.617C176.301 224.927 176.58 225.17 176.887 225.345C177.196 225.525 177.521 225.641 177.863 225.696C178.205 225.75 178.554 225.738 178.912 225.662C179.267 225.592 179.62 225.459 179.97 225.265C180.593 224.92 181.058 224.457 181.365 223.878C181.674 223.302 181.798 222.639 181.737 221.888C181.679 221.141 181.411 220.337 180.933 219.476C180.448 218.6 179.903 217.937 179.298 217.488C178.691 217.045 178.065 216.803 177.418 216.762C176.77 216.727 176.137 216.88 175.518 217.223C175.175 217.414 174.88 217.636 174.631 217.891C174.381 218.151 174.186 218.437 174.047 218.748C173.904 219.062 173.823 219.394 173.803 219.746C173.78 220.1 173.83 220.462 173.953 220.833L171.856 221.981C171.632 221.393 171.519 220.789 171.515 220.167C171.508 219.547 171.612 218.939 171.826 218.343C172.043 217.75 172.374 217.196 172.82 216.681C173.267 216.169 173.832 215.725 174.514 215.347C175.52 214.789 176.547 214.523 177.596 214.551C178.644 214.579 179.64 214.906 180.582 215.534C181.524 216.161 182.336 217.09 183.018 218.319C183.703 219.553 184.058 220.735 184.086 221.865C184.115 222.998 183.864 224.017 183.332 224.921C182.8 225.825 182.035 226.554 181.036 227.108C180.399 227.461 179.757 227.7 179.11 227.825C178.463 227.95 177.829 227.958 177.208 227.849C176.589 227.744 176.004 227.518 175.451 227.172C174.897 226.831 174.4 226.366 173.961 225.776Z" fill="#9DFC03"></path> <path d="M163.04 221.196L167.286 233.579L165.043 234.349L163.245 229.106L157.507 231.074L159.305 236.316L157.055 237.088L152.809 224.705L155.058 223.933L156.862 229.194L162.6 227.226L160.796 221.966L163.04 221.196Z" fill="#9DFC03"></path> <path d="M132.632 230.758C133.146 230.714 133.626 230.799 134.072 231.014C134.518 231.232 134.886 231.543 135.177 231.946C135.464 232.349 135.629 232.808 135.673 233.321C135.717 233.839 135.632 234.319 135.417 234.761C135.198 235.207 134.887 235.574 134.484 235.86C134.081 236.151 133.623 236.319 133.109 236.362C132.591 236.406 132.111 236.319 131.669 236.1C131.223 235.886 130.857 235.577 130.57 235.173C130.279 234.775 130.112 234.316 130.068 233.798C130.024 233.285 130.112 232.805 130.33 232.358C130.545 231.912 130.854 231.544 131.256 231.253C131.655 230.967 132.114 230.802 132.632 230.758Z" fill="#9DFC03"></path> </svg> 